<?xml version="1.0" encoding="UTF-8" standalone="no"?>
<!-- Created with Inkscape (http://www.inkscape.org/) -->

<svg
   version="1.1"
   id="Mvg1"
   width="1024"
   height="1024"
   viewBox="0 0 1024 1024"
   xmlns:xlink="http://www.w3.org/1999/xlink"
   xmlns="http://www.w3.org/2000/svg"
   xmlns:svg="http://www.w3.org/2000/svg">
  <defs
     id="defs1">
    <linearGradient
       id="swatch2">
      <stop
         style="stop-color:#000000;stop-opacity:0;"
         offset="0"
         id="stop2" />
    </linearGradient>
    <linearGradient
       xlink:href="#swatch2"
       id="linearGradient2"
       x1="-0.5"
       y1="512"
       x2="1024.5"
       y2="512"
       gradientUnits="userSpaceOnUse" />
  </defs>
  <g
     id="g1"
     style="fill:#2dd4bf;fill-opacity:1">
    <path
       style="display:inline;fill:#2dd4bf;fill-opacity:1;stroke:none"
       d="M 0,512 V 0 h 512 512 v 512 512 H 512 0 Z m 624.5,392.09893 c 61.50676,-7.42133 104.15512,-23.82619 134.53904,-51.75099 26.45217,-24.31126 47.26791,-52.60624 57.31096,-77.90318 6.49281,-16.35442 8.07512,-24.83944 8.00845,-42.94476 -0.0649,-17.62602 -1.3541,-24.42227 -7.37726,-38.89054 -7.74473,-18.60369 -26.329,-40.81999 -44.58206,-53.295 -10.42299,-7.12357 -33.40224,-18.88383 -51.12389,-26.16404 -13.89446,-5.70797 -20.17997,-7.65359 -87.3251,-27.03053 C 575.93049,569.37641 560.22663,564.54778 542.16145,557.8967 524.16131,551.26956 489.17321,533.92589 476,525.10034 c -34.49392,-23.10962 -54.68232,-47.78752 -63.56446,-77.69995 -3.54933,-11.95311 -4.4897,-33.55946 -2.02861,-46.6102 8.60284,-45.61924 43.97871,-85.99327 91.34908,-104.25556 9.13014,-3.51987 27.85124,-8.54413 31.74399,-8.51927 1.12233,0.007 -1.25846,1.78885 -5.42528,4.06003 -17.514,9.54626 -33.71308,23.56332 -42.38993,36.67998 -11.70029,17.68714 -18.05466,43.37821 -15.74865,63.67263 2.6469,23.29449 14.34616,44.63395 37.06386,67.60448 17.28629,17.47868 31.75501,28.44063 80.09622,60.68341 44.13071,29.43444 66.04518,42.93279 67.87005,41.80496 1.69585,-1.0481 12.74415,-20.20645 39.71741,-68.87216 C 773.8228,350.86427 797.53614,308.75279 840.27974,235.09104 884.10656,159.56254 895.52343,138.7632 897.508,130.83217 898.86455,125.41095 900.17295,125.5 819.16141,125.5 h -74.3386 l -2.03572,2.5 c -1.11965,1.375 -6.08822,10.825 -11.04126,21 -22.28906,45.78828 -31.25371,63.71738 -40.25045,80.5 -14.4682,26.98916 -32.80501,58.68159 -34.27981,59.24752 -0.71659,0.27498 -6.79575,-1.09055 -13.50923,-3.03451 C 612.54933,276.69116 597.47191,274.52648 566,274.55665 c -26.3624,0.0253 -34.83481,0.97739 -54.5,6.12457 -23.56504,6.16794 -40.1698,14.55555 -59.80908,30.21153 -11.94401,9.52149 -22.13819,19.59449 -30.97544,30.60725 -4.41351,5.5 -8.53195,10.12661 -9.1521,10.28136 C 409.23536,352.36227 394.31859,325.15222 346.99468,234 321.84654,185.5613 310.84116,164.80461 295.51644,136.90951 l -5.81809,-10.59049 -36.59917,-0.65803 c -48.24869,-0.86749 -89.02943,-0.7572 -102.45062,0.27708 -15.7814,1.21617 -15.66164,0.93554 -7.38898,17.31371 3.68044,7.28652 15.30053,28.77322 25.82242,47.74822 10.5219,18.975 20.93241,38.1 23.13447,42.5 2.20205,4.4 4.57597,8.675 5.27535,9.5 0.69939,0.825 1.6105,2.625 2.02468,4 0.41418,1.375 1.0826,2.725 1.48536,3 2.04176,1.39408 16.56305,26.62119 49.93942,86.7572 l 16.23817,29.2572 -9.2348,10.2428 c -42.66709,47.32426 -73.03464,108.13164 -82.89505,165.98739 -3.35001,19.65613 -4.38274,39.01877 -3.74717,70.25541 0.66786,32.82313 1.54525,39.55548 8.20811,62.98199 14.61489,51.38571 39.42627,92.22863 79.49502,130.85969 37.36615,36.02543 80.40652,61.72036 130.80597,78.09062 31.50985,10.23472 55.85055,14.58474 112.18847,20.04964 22.03197,2.13714 28.52944,2.34694 64.5,2.0827 33.56969,-0.24661 42.89364,-0.64299 58,-2.46571 z m -100,-5.15511 c -8.8,-0.49148 -19.375,-1.26459 -23.5,-1.71802 l -7.5,-0.82443 14.5,-0.75678 c 55.83393,-2.91408 92.70457,-13.82672 122.64251,-36.29863 18.12006,-13.60121 33.33876,-36.08975 36.42797,-53.82928 1.58685,-9.11235 0.6587,-35.89937 -1.52195,-43.92448 -4.72067,-17.37277 -21.59623,-39.43675 -41.81668,-54.67332 -14.71524,-11.08827 -45.69899,-27.88088 -81.9829,-44.43321 -7.01309,-3.19929 -12.59741,-5.97055 -12.40961,-6.15834 0.1878,-0.1878 11.77577,4.4234 25.75106,10.24712 30.38567,12.66217 54.34631,24.67146 71.0926,35.63224 16.74791,10.96184 16.80806,10.97803 22.22589,5.98406 2.39931,-2.21161 5.87635,-4.80525 7.72675,-5.76363 13.24863,-6.86191 89.06426,-30.3768 119.13268,-36.95005 l 12.76832,-2.79128 2.60432,2.4071 c 6.92503,6.40061 17.01387,22.84795 21.44735,34.96459 7.81012,21.34496 7.88887,43.97231 0.22722,65.29211 -13.06657,36.35989 -48.54764,78.97193 -83.83653,100.68598 -25.36978,15.61059 -60.43792,25.88994 -107.479,31.50477 -16.17959,1.9312 -72.40841,2.74898 -96.5,1.40348 z M 466,887.88378 c -11.82666,-1.351 -34.27097,-5.64135 -49,-9.36662 -46.05494,-11.64822 -87.2582,-31.11234 -123.83587,-58.49919 -15.90088,-11.90548 -43.92606,-39.56819 -54.41234,-53.70858 -25.52402,-34.41827 -46.12191,-79.91619 -52.12896,-115.14575 -3.97701,-23.32399 -4.5361,-71.71356 -1.12708,-97.54945 5.5262,-41.88134 19.96312,-80.02757 49.01262,-129.50458 6.95333,-11.84289 32.59741,-44.16875 36.1076,-45.51574 0.72169,-0.27694 2.17959,0.71464 3.23976,2.20352 4.45772,6.26029 33.20018,56.58686 46.96717,82.2371 l 5.11735,9.53449 -4.49868,14.39694 c -15.85375,50.73607 -19.1222,87.98691 -11.35903,129.46 5.52546,29.51863 21.62198,62.41904 43.09022,88.07408 38.42136,45.91439 94.99774,77.11623 167.77203,92.52616 31.11054,6.58765 37.07407,7.15543 80.55521,7.66955 23.04357,0.27246 44.02715,0.0539 49.5,-0.51554 5.225,-0.54368 9.64374,-0.85039 9.81942,-0.68158 0.67851,0.65195 -6.02456,15.39367 -10.39196,22.8545 -5.21704,8.91228 -16.72419,21.44564 -26.37638,28.72864 -16.82421,12.69461 -47.96134,24.83498 -76.6173,29.8731 -20.91326,3.67684 -61.96215,5.15326 -81.43378,2.92895 z M 584.5,797.0243 C 509.12659,792.27163 443.67126,770.09513 396,733.1598 385.22394,724.8106 366.60024,706.74419 358.72476,697 c -20.2002,-24.99336 -34.30554,-54.3352 -40.86161,-85 -2.00483,-9.37724 -2.24543,-13.33364 -2.2501,-37 -0.004,-19.6135 0.44289,-29.74835 1.71917,-39 2.31291,-16.766 11.55306,-52 13.63705,-52 1.05744,0 11.36412,17.30874 23.52071,39.5 22.95839,41.90943 27.09748,47.98455 43.6532,64.07165 11.30219,10.98228 25.51565,21.99022 40.04743,31.01565 13.49358,8.38062 51.4119,27.52465 97.80939,49.38156 43.5785,20.52894 59.09752,28.60289 74.00673,38.50288 33.38531,22.16844 50.57633,48.5179 52.18795,79.9908 0.28252,5.51726 0.11862,6.05124 -2.19468,7.15024 -5.94205,2.82295 -51.90022,4.8996 -75.5,3.41152 z m 45,-101.62382 C 611.58138,683.12126 588.25148,672.19385 523,645.51731 c -62.21309,-25.43437 -68.19403,-28.23158 -87.5,-40.92259 -33.25546,-21.86087 -61.08599,-53.5506 -67.01285,-76.30538 -3.01594,-11.57894 -1.3858,-34.89081 4.05803,-58.03222 4.87472,-20.72216 17.15567,-54.26416 26.2729,-71.75712 l 3.12717,-6 -0.72263,6 c -2.02695,16.82998 -0.0157,40.05783 4.93544,57 10.23288,35.01541 42.36549,67.35554 91.84194,92.43512 31.52389,15.97943 50.89764,22.82519 138.5,48.93928 80.22061,23.91361 106.06383,34.19466 132.48865,52.70715 l 11.18733,7.83754 -10.45138,2.19063 c -16.99799,3.56283 -63.57334,17.23323 -95.7246,28.09629 -13.48827,4.55733 -25.38559,9.90236 -29.88486,13.42618 -1.31167,1.02729 -2.66167,1.85398 -3,1.83708 -0.33833,-0.0169 -5.56514,-3.42286 -11.61514,-7.56879 z m 2.12884,-157.35936 c -18.62078,-11.70741 -65.33037,-41.87986 -69.03609,-44.59444 -1.82704,-1.33838 -1.59119,-2.01856 5.60745,-16.17191 10.76782,-21.17074 60.73802,-113.62265 68.86107,-127.40268 12.44912,-21.11879 21.61813,-25.45381 35.37727,-16.72601 18.55204,11.76807 30.66353,16.87952 46.22553,19.5087 12.6787,2.14205 23.20949,1.2101 35.99853,-3.18579 5.37823,-1.84862 9.87746,-3.26226 9.99829,-3.14143 0.12084,0.12083 -3.16273,6.28406 -7.29682,13.69607 -6.82945,12.24452 -42.21678,76.36007 -83.60444,151.47637 -16.69928,30.30826 -21.53531,38.53152 -22.61388,38.45297 -0.35516,-0.0259 -9.13777,-5.3862 -19.51691,-11.91185 z M 344.33659,487.23579 C 311.24439,430.82127 291.38648,388.80404 285.38477,362.5 c -2.54517,-11.15489 -2.41115,-24.56419 0.30592,-30.60847 7.49928,-16.68255 31.95098,-15.12143 72.13512,4.60548 20.35015,9.99015 44.24928,24.65033 45.50046,27.91086 0.31735,0.82698 -2.75082,8.46638 -6.81815,16.97644 -18.83121,39.40053 -32.4853,80.11336 -37.0455,110.45975 -2.77179,18.44514 -1.34883,18.87866 -15.12603,-4.60827 z m 200.49327,-6.51497 c -8.66008,-6.50147 -25.00273,-21.08176 -31.9283,-28.48521 -17.81584,-19.04518 -29.4458,-40.4742 -33.3901,-61.52358 -1.3777,-7.35232 -1.45403,-9.99949 -0.47535,-16.4854 5.01834,-33.25738 24.7269,-59.07919 56.7624,-74.3691 20.60669,-9.83517 28.99496,-11.30799 60.43582,-10.61142 23.89655,0.52944 33.42398,1.80749 49.26567,6.60873 5.34149,1.61888 5.96979,2.08333 5.72473,4.23181 -0.27591,2.41907 -19.81985,39.66002 -60.04376,114.41335 -24.2289,45.02772 -38.2002,69.73713 -39.68097,70.17912 -0.55,0.16417 -3.55156,-1.61706 -6.67014,-3.9583 z M 277.24486,369.8026 c -1.0908,-1.81643 -5.49018,-9.8276 -9.7764,-17.8026 -12.48651,-23.23256 -46.09308,-83.33667 -54.53618,-97.53596 -4.26325,-7.16978 -14.6934,-25.61978 -23.17811,-41 -8.48471,-15.38022 -21.80041,-39.51431 -29.59045,-53.63131 C 152.37367,145.71574 146,133.90018 146,133.57593 c 0,-0.32424 31.31649,-0.47397 69.59219,-0.33273 l 69.59219,0.2568 11.99757,22 c 6.59867,12.1 26.41482,49.675 44.03589,83.5 28.28315,54.29165 42.04936,80.29124 55.99233,105.75 2.18383,3.9875 3.74812,7.25 3.4762,7.25 -0.27192,0 -5.82626,-3.31541 -12.34298,-7.36757 -35.35839,-21.98621 -70.10042,-33.87818 -89.44275,-30.61567 -12.86037,2.16918 -20.1717,9.59763 -21.9368,22.28822 -1.09668,7.88484 -0.0331,24.01027 2.10805,31.962 1.37119,5.0922 0.66514,5.68564 -1.82703,1.53562 z m 439.27071,-24.46209 c -10.47604,-2.24453 -21.29815,-6.76236 -31.17012,-13.01238 -16.36167,-10.3587 -15.07936,-9.83282 -23.84545,-9.77918 -5.71085,0.035 -8.9723,0.56494 -11.39793,1.85218 l -3.39794,1.80323 3.79383,-6.85218 c 2.08661,-3.7687 6.48516,-12.02718 9.77455,-18.35218 3.28939,-6.325 10.36289,-19.15 15.71889,-28.5 21.3604,-37.28896 39.69699,-72.72134 60.42354,-116.75833 4.33813,-9.21708 9.28196,-18.35451 10.98628,-20.30541 l 3.09878,-3.54707 68.66118,-0.19459 c 37.76365,-0.10703 68.98417,0.12592 69.37894,0.51767 1.67821,1.66539 -13.06365,28.68951 -50.0709,91.78773 -13.06434,22.275 -30.49445,52.2 -38.73359,66.5 -20.94615,36.35453 -22.61595,38.80859 -29.32756,43.10196 -18.73417,11.9841 -35.60015,15.65775 -53.8925,11.73855 z"
       id="path1" />
  </g>
</svg>
